ply
format ascii 1.0
comment PCL generated
element vertex 761
property float x
property float y
property float z
element camera 1
property float view_px
property float view_py
property float view_pz
property float x_axisx
property float x_axisy
property float x_axisz
property float y_axisx
property float y_axisy
property float y_axisz
property float z_axisx
property float z_axisy
property float z_axisz
property float focal
property float scalex
property float scaley
property float centerx
property float centery
property int viewportx
property int viewporty
property float k1
property float k2
end_header
-0.062693104 0.16777475 -0.060716793
-0.063322514 0.17474492 -0.060998462
-0.066577338 0.15769647 -0.053051077
-0.070465699 0.1683905 -0.050274126
-0.064904086 0.1651793 -0.055405375
-0.073134772 0.17636321 -0.052560076
-0.065102614 0.17527491 -0.055622127
-0.072107241 0.18073666 -0.053829733
-0.067985617 0.18076804 -0.056955129
-0.071785428 0.14986467 -0.041395236
-0.06957455 0.14963949 -0.0405889
-0.071134381 0.15511742 -0.044363115
-0.065773159 0.15543431 -0.045300562
-0.072269328 0.16534439 -0.044774387
-0.063431002 0.16534707 -0.045340512
-0.075157866 0.17519982 -0.045283604
-0.066708907 0.17321458 -0.045541521
-0.033275235 0.036771912 -0.030478247
-0.02945905 0.0355772 -0.0300979
-0.031611368 0.040902402 -0.030073568
-0.014053234 0.049034238 -0.030629963
-0.0051468993 0.048927952 -0.030551478
0.0013572661 0.049662899 -0.0303632
-0.022327768 0.057138942 -0.031704098
-0.015186976 0.055526558 -0.033549953
-0.0051699858 0.055510655 -0.03280881
0.0044575324 0.056273926 -0.031001383
0.0103374 0.0553349 -0.0300221
-0.024359789 0.065698549 -0.033934847
-0.015187678 0.06521558 -0.036931235
-0.0052191089 0.065587319 -0.03521635
0.0047901697 0.065417729 -0.032746356
0.012459688 0.066745229 -0.030767517
-0.031237343 0.076493092 -0.031771995
-0.025511244 0.075144395 -0.03648366
-0.015302354 0.075157881 -0.038564425
-0.0052624443 0.075566866 -0.036804799
0.0047387355 0.075426497 -0.034412559
0.012557445 0.075096928 -0.031238696
-0.030843932 0.083129235 -0.031628262
-0.025515782 0.085288964 -0.036141898
-0.015143392 0.085577175 -0.03844025
-0.0053147301 0.085535146 -0.036954638
0.0047678878 0.085298575 -0.033732884
0.012177909 0.085167751 -0.03086515
-0.023482127 0.09236823 -0.033004217
-0.014670466 0.093914703 -0.033924229
-0.0050560925 0.09405037 -0.033398822
0.0043792482 0.092830546 -0.031976722
0.0111008 0.090922564 -0.030381734
-0.072215676 0.14904137 -0.035069883
-0.067794219 0.14885564 -0.034176346
-0.072877437 0.15543233 -0.035406202
-0.0633028 0.15491802 -0.035210174
-0.07661242 0.16530216 -0.03523805
-0.063996986 0.16589387 -0.034710016
-0.074316531 0.17188875 -0.035825688
-0.068414874 0.17116416 -0.036099385
-0.043220166 0.035831355 -0.024024891
-0.035454601 0.034592152 -0.0258207
-0.024963198 0.035417475 -0.026040506
-0.015207238 0.035682384 -0.025000185
-0.0052101682 0.035912294 -0.023999266
0.0046895808 0.036547545 -0.023196876
0.012834058 0.037351098 -0.021804864
-0.042063817 0.042306285 -0.022413421
-0.035066362 0.044738203 -0.025673499
-0.025387414 0.045065992 -0.027847109
-0.015420767 0.044036556 -0.027886143
-0.0051138862 0.04355786 -0.026884643
0.005041027 0.044754229 -0.026020374
0.014880778 0.04498988 -0.023992894
0.02146125 0.047280222 -0.021290839
-0.0300794 0.058620751 -0.0204133
-0.027054144 0.054612979 -0.02532836
0.006348467 0.051726855 -0.029509086
0.014910876 0.055185374 -0.028213857
0.023845416 0.055117551 -0.023755288
-0.031194167 0.066314138 -0.02344547
-0.028946079 0.063194461 -0.027060393
0.016453205 0.064110227 -0.028915707
0.024649197 0.064840637 -0.024229201
-0.054264076 0.079735711 -0.020448439
-0.0492585 0.079729095 -0.020088699
-0.03334453 0.075102635 -0.025062189
0.017511133 0.075175762 -0.028877079
0.025011035 0.074914195 -0.024821332
0.030510344 0.076078631 -0.020813314
-0.055228427 0.085551329 -0.021338597
-0.045297805 0.085604377 -0.021482628
-0.034755226 0.085038856 -0.024920208
-0.0297851 0.089026101 -0.0295849
0.017214073 0.085410759 -0.02829692
0.024948349 0.084893964 -0.023864757
0.030245027 0.084520496 -0.020162586
-0.054629624 0.09531457 -0.021532107
-0.045336481 0.095649749 -0.022028377
-0.035386126 0.094570242 -0.023390478
-0.026065445 0.095346034 -0.025897069
-0.015157061 0.097880818 -0.026735121
-0.0046300902 0.09862636 -0.026939478
0.0052408874 0.097380951 -0.026216321
0.014855975 0.094667688 -0.025354063
0.023742296 0.09447585 -0.021894621
-0.052424546 0.10237709 -0.020762829
-0.044841237 0.10362212 -0.020914435
-0.035199232 0.10375282 -0.021242101
-0.025082035 0.10457869 -0.022620505
-0.015311576 0.10551679 -0.022450473
-0.0052278051 0.10516124 -0.022723775
0.0042631142 0.10456065 -0.02129367
0.014647323 0.10210782 -0.021544851
0.021781467 0.10125967 -0.020526951
-0.021274749 0.1100115 -0.02050795
-0.0111844 0.110115 -0.020641301
-0.0055843554 0.11120311 -0.020820372
0.003320941 0.11081792 -0.020208854
-0.073223986 0.14832684 -0.025391683
-0.06616053 0.1475217 -0.025072288
-0.074916348 0.15548547 -0.025409361
-0.062122352 0.15421487 -0.025178352
-0.075943574 0.16559765 -0.025298608
-0.065365605 0.16476271 -0.02519837
-0.020658899 0.169735 -0.020182051
-0.013815939 0.16843258 -0.022291567
-0.0093544722 0.16849086 -0.022635946
-0.07185331 0.170384 -0.029111916
-0.022055462 0.17508982 -0.021196889
-0.013564327 0.17557149 -0.024904106
-0.0092711644 0.17414834 -0.026529174
-0.021201726 0.18222925 -0.021144912
-0.014759613 0.1829163 -0.024665322
-0.05401263 0.036046293 -0.011363455
-0.046011019 0.035661574 -0.014727158
-0.034940831 0.036413174 -0.015457009
-0.025035333 0.037805956 -0.015965104
-0.015117336 0.037339486 -0.015820375
-0.0051402324 0.036914792 -0.015332317
0.0047928803 0.035982441 -0.014569574
0.015602761 0.035838325 -0.014995169
0.020117501 0.0390306 -0.012698567
-0.051995534 0.041121714 -0.010633778
-0.044417962 0.04459852 -0.013544989
-0.036482133 0.048499163 -0.015478036
0.019594301 0.041435 -0.0196763
0.024168331 0.045150708 -0.015264743
0.030177101 0.049696498 -0.0112195
-0.050617799 0.0590261 -0.0100428
-0.044367578 0.055424321 -0.011188896
-0.033757228 0.055103488 -0.013305107
-0.029801333 0.05185087 -0.019029066
0.028817777 0.054295808 -0.018146992
0.032369636 0.055819578 -0.013563506
-0.062663458 0.068661027 -0.011683945
-0.053875726 0.066781983 -0.012281983
-0.045181412 0.065085135 -0.014042371
-0.035253245 0.064705439 -0.015649196
0.029256083 0.064406902 -0.019887248
0.03498438 0.065156326 -0.014875893
-0.072681926 0.077314101 -0.012496438
-0.065102756 0.075217344 -0.015800608
-0.055365913 0.074733272 -0.017705997
-0.045117039 0.075223766 -0.018039085
-0.037553981 0.074842691 -0.018486358
0.035295639 0.075021401 -0.015254403
-0.074703917 0.085171163 -0.01393071
-0.065295137 0.0852357 -0.018435694
-0.059782799 0.081072301 -0.0197911
-0.0447652 0.0811738 -0.019997999
0.035702728 0.085226245 -0.016396513
0.040363152 0.085520126 -0.011142627
-0.074829809 0.094842009 -0.013513773
-0.065342106 0.09527126 -0.017477704
-0.059210356 0.096870705 -0.019396119
0.02798586 0.096859857 -0.018705692
0.034379456 0.094457671 -0.014425081
-0.07314688 0.10397302 -0.011719601
-0.065394312 0.10528982 -0.015347631
-0.05593811 0.10611168 -0.018507767
-0.045942575 0.10827201 -0.019070016
-0.035303809 0.10889069 -0.019337725
-0.028899726 0.10930625 -0.019228699
0.0087963268 0.10824433 -0.019829599
0.015610453 0.10701761 -0.018358665
0.025389962 0.10532799 -0.015902223
0.032683171 0.10394546 -0.012222938
-0.070902899 0.110786 -0.0101311
-0.064056486 0.11384736 -0.012125156
-0.055040278 0.11536523 -0.014772069
-0.04482092 0.11498009 -0.015868992
-0.034965981 0.11539067 -0.015119821
-0.025057323 0.11538773 -0.015140849
-0.015434576 0.11563505 -0.016089967
-0.0051956954 0.11597378 -0.016661517
0.0051795803 0.11575398 -0.017579885
0.014987799 0.11518527 -0.015163447
0.023834212 0.1131182 -0.012137107
-0.053046037 0.12110322 -0.011072433
-0.045138672 0.12184472 -0.011759217
-0.038076207 0.12137911 -0.011040645
-0.021855799 0.120004 -0.0110164
-0.01269881 0.1207926 -0.011349929
-0.0050324691 0.12165914 -0.011717764
0.0053237146 0.12183028 -0.012240352
0.012691118 0.12137134 -0.011576711
-0.073766358 0.14669736 -0.014877701
-0.064828046 0.14585215 -0.014765472
-0.076664001 0.15549262 -0.015203387
-0.063069955 0.15523018 -0.014835975
-0.040902503 0.1585796 -0.01068784
-0.034603577 0.15770796 -0.011480436
-0.025413746 0.15861817 -0.011592559
-0.018173251 0.1596535 -0.01079915
-0.074082792 0.1630064 -0.015587217
-0.067016006 0.16245243 -0.01591433
-0.041341953 0.16430806 -0.011067346
-0.034646116 0.16519994 -0.014353509
-0.024314815 0.16555029 -0.015447378
-0.014857028 0.16497506 -0.015208894
-0.0097685717 0.16770117 -0.019132599
-0.033704761 0.1739863 -0.013579688
-0.025073765 0.1754521 -0.015233574
-0.016508913 0.174413 -0.01769547
-0.023292346 0.18305914 -0.014285566
-0.018237086 0.18403731 -0.017758479
-0.070753053 0.036024231 -0.0008452881
-0.064652495 0.035395008 -0.0055368892
-0.055365998 0.034063611 -0.0055073746
-0.045369491 0.033690639 -0.0050031319
-0.033869036 0.038188495 -0.0053365906
-0.024892556 0.038394719 -0.0050308504
-0.014818893 0.038663927 -0.0050118011
-0.0048037167 0.038963642 -0.0051334943
0.0051445207 0.037197415 -0.0052030119
0.015247445 0.034766085 -0.0055358517
0.023216294 0.037576113 -0.0038174069
0.03341271 0.039180968 -0.0011357202
-0.064119272 0.042683061 -0.0036804779
-0.05557929 0.045130208 -0.0065213772
-0.04838955 0.047516163 -0.0094298664
0.026325367 0.043231424 -0.0070424783
0.034802802 0.045351159 -0.005216389
0.043916032 0.046651144 -0.0032524029
0.0504722 0.048918001 -0.00068491499
-0.05438257 0.054838262 -0.0047991402
-0.048446927 0.052264787 -0.0092741083
0.036499936 0.054342438 -0.0071830959
0.044765342 0.054988753 -0.005466796
0.052440662 0.056007821 -0.0026165419
-0.072008044 0.068320535 -0.0024574543
-0.065166585 0.064544164 -0.0042925375
-0.056519311 0.062394563 -0.0063683293
0.039146628 0.062926225 -0.0081974193
0.043983329 0.064794712 -0.0034498929
0.052623708 0.062918268 -0.0017162582
-0.081070334 0.077597409 -0.0025776443
-0.076462388 0.074486896 -0.005976805
-0.069094151 0.070355654 -0.0084884148
0.039649062 0.075884342 -0.0097910445
0.042526916 0.074609779 -0.0049403589
-0.082953602 0.085350394 -0.0041836458
-0.079085313 0.083934791 -0.0091331778
0.042896222 0.08457271 -0.005292742
-0.08350461 0.095071457 -0.0045251949
-0.079281241 0.09596391 -0.0093314536
0.038643178 0.097419642 -0.0082594901
0.041882236 0.0940983 -0.0046849838
-0.082333364 0.10432099 -0.0031261493
-0.077335007 0.10602626 -0.0077097663
0.036676433 0.10543042 -0.0055159447
0.040829882 0.10159183 -0.001473445
-0.082822137 0.1160216 -0.001960956
-0.075390249 0.11504762 -0.0063543417
-0.066579126 0.11761229 -0.0090748202
0.019395199 0.1197975 -0.0091070794
0.026505947 0.11686463 -0.0063299644
0.032550111 0.1131461 -0.0037750339
-0.084220104 0.12506674 -0.0032677236
-0.075408496 0.12522271 -0.0075434768
-0.065219097 0.12533514 -0.0087360376
-0.05515622 0.12551495 -0.0070346114
-0.044824295 0.12661484 -0.005209249
-0.035100501 0.12416171 -0.005164193
-0.025028378 0.12276729 -0.0054198257
-0.015285264 0.12426466 -0.0055511291
-0.0049328241 0.12670889 -0.0055778571
0.0050663338 0.12684175 -0.0054264073
0.014976845 0.12462465 -0.0051188278
0.022761187 0.12189131 -0.0029349092
-0.082600892 0.13463746 -0.0021485745
-0.075400397 0.13537741 -0.0064940397
-0.06490159 0.13556887 -0.0077241305
-0.055022154 0.13507038 -0.0038798647
-0.049538065 0.13147467 -0.00086848933
-0.080839805 0.14291476 -0.0014815084
-0.07630007 0.14476767 -0.0060168086
-0.062912695 0.14485234 -0.0063334713
-0.055525422 0.14493552 -0.0020652274
-0.045354594 0.14786701 -0.0024620811
-0.039352302 0.14938726 -0.0014054296
-0.075504906 0.15489973 -0.0051744115
-0.065576546 0.15470964 -0.0049837232
-0.053833578 0.15450965 -0.002715711
-0.044851273 0.15438685 -0.0070493491
-0.034785561 0.15319045 -0.0054309606
-0.025519772 0.15693206 -0.0046856315
-0.018485816 0.15924801 -0.0083339149
-0.071854241 0.16077086 -0.0087884115
-0.069053568 0.16035433 -0.0090973666
-0.051595584 0.16280565 -0.0024432221
-0.046096202 0.16581652 -0.0062607601
-0.033559166 0.16561097 -0.0031166391
-0.025641851 0.16452418 -0.0066389437
-0.017454468 0.16216776 -0.0080990158
-0.041922022 0.17184973 -0.0046928041
-0.034514781 0.17483558 -0.0048016822
-0.028073588 0.17557891 -0.0076221568
-0.026767053 0.18076357 -0.0085536782
-0.071611866 0.036475163 0.0051474534
-0.065260813 0.033727732 0.0052963896
-0.055029754 0.033567373 0.0050746356
-0.044941686 0.034096241 0.0052747419
-0.036710955 0.03422986 0.0059647649
-0.024814181 0.038215764 0.0046647242
-0.015217106 0.038391773 0.0049941135
-0.0049854456 0.038228523 0.0051442734
0.0044663227 0.034761269 0.0044806232
0.015808303 0.034904778 0.0029023509
0.024740946 0.035040274 0.0053066956
0.035092343 0.037275445 0.0052082371
0.0411525 0.03929837 0.0072292709
-0.070532203 0.040841378 0.0041503808
-0.066065162 0.044408906 0.0052766204
-0.057946801 0.048744146 0.0057509886
0.04580861 0.042884167 0.0041962829
0.052617252 0.047460519 0.0056294301
-0.061989192 0.05946641 0.0065768543
-0.057176691 0.055188686 0.0051068594
0.057032067 0.054941431 0.0045709885
0.060220502 0.059525952 0.0086646499
-0.074006937 0.066232435 0.0055970582
-0.066407248 0.061497085 0.0043309005
0.046896175 0.06828995 0.0014393646
0.05681248 0.065949924 0.003610523
0.060317237 0.063111097 0.008314549
-0.082720816 0.075897537 0.0053869756
-0.078362428 0.0711542 0.0042286557
0.046369668 0.074786723 0.004780577
0.054177966 0.07145191 0.0066854404
-0.086506151 0.084762327 0.0048739198
0.045612928 0.084790252 0.0046865754
-0.0876377 0.094926991 0.0050360402
0.044498056 0.094553985 0.0046757269
-0.08587081 0.10489134 0.0048834472
0.038669363 0.10801829 0.0039866078
0.041699652 0.10298604 0.0050348043
-0.091090716 0.11735954 0.0072617815
-0.086751759 0.11410207 0.0037532141
0.029169252 0.11935662 0.0024499893
0.033928785 0.11498163 0.00525661
-0.091471143 0.12479035 0.0074693179
-0.088719584 0.12554568 0.0024459015
-0.043106649 0.12891836 0.004156108
-0.034876861 0.12699318 0.0050453632
-0.025166312 0.12576011 0.0048030079
-0.014951296 0.12822394 0.0049320664
-0.0065042186 0.12958176 0.0022025476
0.0055704312 0.12986889 0.00028603285
0.015790988 0.12827654 0.004363813
0.024635844 0.12338942 0.0051168702
-0.09070015 0.1322825 0.0077320547
-0.087446712 0.13553751 0.0041211168
-0.051058531 0.13821891 0.0013916827
-0.047910184 0.13391924 0.0052752919
-0.0040103272 0.13059811 0.0060306718
0.0050352779 0.13099563 0.0052997041
0.011317531 0.13040169 0.0070440355
-0.084575638 0.14460385 0.0046856795
-0.050870556 0.14212897 0.0016092509
-0.046796467 0.14539871 0.0053213416
-0.039285652 0.14948851 0.00089065603
-0.083232522 0.15175371 0.0062133186
-0.074906848 0.15486363 0.0046988553
-0.064844385 0.15489924 0.0045769447
-0.056329839 0.1580206 0.0054325135
-0.044493213 0.1552632 0.0070812339
-0.035788443 0.1556423 0.0026597974
-0.028786639 0.15900061 0.00071148376
-0.052726664 0.16221978 0.0035479949
-0.044848964 0.16487455 0.0039491174
-0.038283829 0.16541246 0.001507692
-0.040567599 0.171048 0.000226569
-0.037487339 0.1711894 0.00060075655
-0.070268899 0.036098152 0.0106367
-0.064803623 0.036047783 0.014636789
-0.05653777 0.033856045 0.015226692
-0.034263901 0.034401082 0.014396124
-0.02434057 0.037777033 0.01518515
-0.014902415 0.038256306 0.014993309
-0.0042144051 0.037684947 0.014967848
0.0035164722 0.034446511 0.015705004
0.0145275 0.035448499 0.01889535
0.025493579 0.035151526 0.015296444
0.034964956 0.036885031 0.015367116
0.041382682 0.039495893 0.014803145
-0.063423939 0.042573087 0.012892419
-0.054867629 0.045862202 0.015438485
0.04610198 0.041934881 0.015246357
0.053409975 0.047028996 0.014701759
-0.062617071 0.059157312 0.014754595
-0.053730682 0.054605324 0.0146834
-0.049894653 0.052216999 0.016644351
0.058534916 0.054148231 0.014957972
0.06035538 0.05892859 0.013729681
-0.074395753 0.066113763 0.015063454
-0.067458667 0.06097877 0.015629495
0.059554897 0.068021894 0.016281238
0.060620073 0.064281411 0.014215857
-0.082914613 0.075898796 0.0153183
-0.079508595 0.070777141 0.015408154
0.047134664 0.07542979 0.014858657
0.055280395 0.072399773 0.014942497
-0.087399684 0.084733151 0.014976713
0.045784291 0.084744856 0.014729826
-0.089428507 0.094955638 0.014924553
0.044478729 0.094565965 0.014660699
-0.087583989 0.10502454 0.014868545
0.038900699 0.10838064 0.015273188
0.041621976 0.10297331 0.014417808
-0.092349514 0.11571599 0.01507439
-0.08844021 0.1112813 0.015117621
0.029852131 0.119835 0.017384
0.034100369 0.11511397 0.014994707
-0.093621001 0.12482964 0.014765942
-0.042555902 0.12828007 0.015411368
-0.034875363 0.12681013 0.014989976
-0.02529975 0.12594084 0.015049017
-0.015337695 0.12872377 0.015254915
-0.0097021451 0.12994251 0.018364601
0.016636286 0.12853791 0.015231133
0.025104107 0.12375169 0.014851752
-0.091305532 0.13443086 0.015354047
-0.089191511 0.13790768 0.011901086
-0.0501104 0.138566 0.0193811
-0.04718018 0.13456143 0.01477724
-0.010327276 0.13010275 0.013798401
-0.0047432384 0.13083138 0.014854426
0.0051070512 0.13143675 0.015023094
0.011624482 0.13052584 0.014695852
-0.091206342 0.14513142 0.016291587
-0.088949405 0.14388056 0.011557135
-0.051321559 0.14544982 0.016155455
-0.049494483 0.14360814 0.011957485
-0.090634242 0.15019286 0.016135301
-0.085502103 0.1529991 0.0148751
-0.074905686 0.15591361 0.015087852
-0.064907156 0.15606356 0.015034638
-0.054739147 0.15423946 0.014603663
-0.048925601 0.15256509 0.010674629
-0.063048899 0.035657387 0.025418324
-0.055552367 0.034209069 0.025196895
-0.045067102 0.034065839 0.028211104
-0.034592006 0.034690354 0.02537901
-0.024813173 0.038095497 0.025237283
-0.015078607 0.038419273 0.024927799
-0.0050567868 0.038618226 0.024895158
0.0049517807 0.036920935 0.02497085
0.01470157 0.034838028 0.025253125
0.025038697 0.036522042 0.024905734
0.033980604 0.038604617 0.023136655
0.040304199 0.0398794 0.0201445
-0.062604703 0.042113736 0.026831601
-0.055197697 0.046152283 0.024458013
0.029188132 0.040839031 0.029424867
0.035382774 0.042098843 0.027624045
0.04516682 0.045000128 0.025578177
0.052085981 0.048190728 0.022710131
-0.060228098 0.059992 0.021311199
-0.05298366 0.055392489 0.024762757
0.049302865 0.05210815 0.029236866
0.055100814 0.055518057 0.02507144
-0.072880067 0.067535549 0.024166895
-0.065224513 0.063398242 0.025102064
-0.056987092 0.061616834 0.027012605
0.044663083 0.066081315 0.027608998
0.055476531 0.065082707 0.024979357
-0.081822529 0.077399462 0.024336219
-0.077574521 0.072697707 0.025960181
0.04453763 0.074603222 0.024699101
0.053199671 0.071222387 0.021971239
-0.085191876 0.085049227 0.025221134
0.043966096 0.084732696 0.024865722
-0.087138541 0.095012255 0.025028897
0.039537966 0.098753057 0.028765917
0.042540416 0.094549023 0.024698379
-0.084733538 0.10470857 0.025210142
0.037897132 0.10600479 0.025710521
0.040908039 0.10186221 0.022167498
-0.091926076 0.11671755 0.02421489
-0.08686357 0.11235415 0.025321802
-0.044888511 0.11937988 0.029398976
-0.032247249 0.11940383 0.029449483
-0.028140238 0.1197184 0.0290669
0.028283797 0.11852416 0.026782261
0.033225916 0.11407647 0.024864765
-0.093555205 0.12488506 0.024771007
-0.045308325 0.12481266 0.025661854
-0.035068367 0.1231247 0.02478553
-0.024808366 0.12283861 0.024748383
-0.014840869 0.1265551 0.025011381
-0.0053812517 0.1285691 0.026408026
0.0053660469 0.12864739 0.027009856
0.015176836 0.12698485 0.025234429
0.024066186 0.12284955 0.024436137
-0.091199167 0.13403112 0.02369415
-0.089366116 0.13726057 0.026654938
-0.051825348 0.13688429 0.026342019
-0.048324186 0.13304092 0.023931034
-0.0034130535 0.13031517 0.021771297
0.0049991487 0.13052461 0.0221064
0.01050185 0.1301495 0.021390151
-0.090985492 0.14452904 0.023947667
-0.088855743 0.14694309 0.028166767
-0.053671919 0.14490496 0.025093583
-0.090354763 0.15021966 0.021119932
-0.084742323 0.15257402 0.024683181
-0.07484249 0.15534121 0.024996536
-0.064878143 0.15562077 0.024998941
-0.056120846 0.15326388 0.024741076
-0.064540327 0.035907935 0.035047784
-0.054871086 0.034441754 0.035071213
-0.044967804 0.03452988 0.034915283
-0.036045626 0.034919273 0.03484283
-0.024481511 0.038724091 0.034424298
-0.01504341 0.039021056 0.034900602
-0.0050604902 0.038971849 0.033993464
0.0054837819 0.037542444 0.034342729
0.014882734 0.035080042 0.034838844
0.022683132 0.03779139 0.034443859
-0.063543983 0.043576758 0.035220124
-0.055221405 0.048243687 0.036068551
-0.04575219 0.048646808 0.039249815
-0.036499616 0.048744194 0.039435931
0.026433472 0.044381455 0.036240891
0.034785639 0.047296576 0.031581722
0.042673223 0.048411261 0.031424273
-0.051080853 0.054235015 0.032330733
-0.045883421 0.05462572 0.037533816
-0.034663882 0.054437425 0.038429167
-0.027397461 0.05578788 0.037780229
0.027603222 0.052053764 0.038817283
0.034976315 0.055094071 0.034491915
0.044803549 0.055599075 0.031647492
0.050416134 0.05788482 0.030202022
-0.070887454 0.069442824 0.0311286
-0.064299829 0.067499019 0.03320051
-0.054875746 0.065585129 0.034560654
-0.047375314 0.063892402 0.037761852
-0.031980265 0.063739873 0.038937245
-0.027879648 0.06410443 0.038560372
0.036875833 0.064769104 0.036019899
0.043023769 0.064035095 0.030700671
0.050514098 0.0610459 0.030169901
-0.080548704 0.0789662 0.0306236
-0.074290842 0.075650968 0.034113549
-0.066122435 0.072898805 0.03767284
-0.055128604 0.071019053 0.039291006
-0.049405869 0.070815943 0.039550435
-0.030497 0.0710328 0.039791301
-0.0291641 0.070796572 0.039743666
0.037018929 0.074899435 0.036691323
0.041022938 0.075238571 0.031173076
-0.081611544 0.085694179 0.032248132
-0.076660894 0.084205568 0.037098192
0.037367281 0.084765218 0.036535934
0.040940359 0.084560476 0.031531513
-0.081932224 0.095209278 0.032314807
-0.076777577 0.095238492 0.037276808
0.036260985 0.095173843 0.035666376
0.040234882 0.092456795 0.030789718
-0.080929331 0.10596203 0.032743782
-0.075443529 0.1053974 0.0363991
-0.065852351 0.10733575 0.038514066
-0.054852434 0.10832711 0.038820621
-0.044830747 0.10829721 0.038843449
-0.035549071 0.10743576 0.038377151
-0.027352892 0.10898724 0.039070979
0.0094939303 0.109876 0.0399119
0.016001012 0.1095838 0.039621279
0.026011126 0.10635459 0.038367864
0.033315945 0.10425842 0.033735417
-0.091887675 0.11649461 0.035067018
-0.085939348 0.11152792 0.035069861
-0.063388102 0.11274146 0.037978973
-0.054767035 0.11567222 0.035947669
-0.045334324 0.11506218 0.03369309
-0.035122313 0.11506004 0.033353619
-0.02494524 0.11526266 0.034926888
-0.015441105 0.11669746 0.037613671
-0.0052774283 0.11840212 0.038615521
0.0061163506 0.11698236 0.03849794
0.01485574 0.11548924 0.037098784
0.024994306 0.11453809 0.033876158
0.031249922 0.111587 0.031369459
-0.092343599 0.124915 0.034762964
-0.060532749 0.129713 0.039690301
-0.053789489 0.12569049 0.03616336
-0.049219899 0.12512708 0.031154541
-0.021994149 0.120798 0.030938799
-0.01435845 0.12268623 0.032428101
-0.0047538653 0.12377194 0.033821054
0.0051933872 0.12384641 0.03356513
0.014333938 0.12244596 0.032767106
0.021381233 0.12113522 0.031242298
-0.09041106 0.13184161 0.034843225
-0.089559928 0.13653219 0.034994166
-0.062205877 0.13614006 0.037323382
-0.055862449 0.13453996 0.033663586
-0.086250164 0.14517465 0.035044543
-0.076359957 0.14922449 0.038873926
-0.063450858 0.14583872 0.03792353
-0.057895247 0.14536047 0.032887217
-0.082380615 0.15093364 0.032425407
-0.074699067 0.15232703 0.034141708
-0.065069951 0.15263712 0.034065172
-0.058228876 0.15205617 0.032252692
-0.062517181 0.036770895 0.042682875
-0.055175435 0.036083516 0.044815391
-0.045251835 0.036291175 0.043476257
-0.035096653 0.036133476 0.044891804
-0.025296511 0.034819856 0.046366882
-0.014294838 0.035024598 0.046678219
-0.005073823 0.036157556 0.046106733
0.0045650662 0.036404371 0.044355594
0.014482708 0.036876857 0.042948943
0.020719517 0.038619902 0.040927049
-0.061682232 0.042627886 0.042036287
-0.055020507 0.043730292 0.044255219
-0.045018878 0.043724991 0.04262042
-0.034890961 0.044716626 0.044202484
-0.0263192 0.04873579 0.047196072
-0.014012261 0.047052477 0.048565388
-0.0050174738 0.043996844 0.047941752
0.0053370125 0.043871075 0.046674144
0.015117788 0.045038052 0.044377469
0.021801786 0.044830747 0.041070312
-0.041503031 0.05842492 0.0402412
-0.03869516 0.058568079 0.040307302
-0.023246719 0.055372585 0.043504998
-0.017861262 0.054145556 0.04861204
0.01620454 0.054017324 0.047966182
0.024103804 0.055705633 0.043759476
0.030781964 0.058746967 0.040278066
-0.043058164 0.065582596 0.040858444
-0.036676139 0.065335207 0.041193448
-0.023452263 0.065157786 0.044735353
-0.01963518 0.062220544 0.049200282
0.018258201 0.063409269 0.049167965
0.025062777 0.065038912 0.044955142
0.031415969 0.06507054 0.040856481
-0.06398318 0.07703422 0.041238055
-0.054981962 0.075648338 0.042340297
-0.044976771 0.074809954 0.042373661
-0.03513626 0.074810028 0.041665886
-0.026710659 0.074742056 0.045139324
0.0198393 0.070011601 0.049762201
0.025545724 0.074978642 0.046588413
0.032014992 0.075572848 0.041775879
-0.071784712 0.085819066 0.040932294
-0.065183446 0.084791608 0.043618098
-0.054993115 0.084776103 0.044737212
-0.044995602 0.084683128 0.043602634
-0.03500358 0.084641434 0.04299932
-0.028094014 0.084916279 0.046905793
0.018521389 0.087962627 0.049372979
0.025553221 0.085336186 0.04688416
0.032612458 0.084916577 0.041975811
-0.07211931 0.094164312 0.041063394
-0.06510663 0.094358824 0.043235555
-0.054996993 0.094594195 0.044175643
-0.044989288 0.094522551 0.043130364
-0.034989592 0.094566099 0.04377187
-0.025427632 0.094934352 0.045595333
-0.015870923 0.09839876 0.047109101
-0.0049564443 0.099684566 0.049319122
0.0053446246 0.098840438 0.04882196
0.016091498 0.09554588 0.048191849
0.025121789 0.094952613 0.045169026
0.031844202 0.09351927 0.041376408
-0.080192797 0.109885 0.040848698
-0.076074317 0.10958006 0.041708913
-0.064152539 0.10228628 0.041293666
-0.055088695 0.10286099 0.041709427
-0.045080658 0.10309149 0.041293927
-0.034395207 0.10219878 0.041507177
-0.024540445 0.10428575 0.042393673
-0.015083026 0.10484079 0.043086488
-0.0045839306 0.10362383 0.044658691
0.0049622129 0.10470613 0.043697763
0.015117499 0.10443483 0.044225264
0.023418782 0.10270751 0.042325038
-0.091273867 0.11695888 0.042137466
-0.085090205 0.11443435 0.045225341
-0.075508125 0.11238562 0.046678808
-0.06535463 0.11553486 0.044829097
-0.059341699 0.119814 0.040479701
-0.013486647 0.11193244 0.041072689
-0.0048389956 0.11295545 0.041656777
0.0040190509 0.11255609 0.041224219
-0.09152554 0.12420499 0.042359047
-0.086693183 0.12479012 0.04746725
-0.063870199 0.1257434 0.04555326
-0.058812663 0.12408835 0.040764302
-0.090209298 0.131023 0.040209599
-0.085755937 0.1353098 0.045271572
-0.073700853 0.13706668 0.048893195
-0.066728383 0.13520551 0.044194743
-0.082936555 0.14262383 0.042571776
-0.074743703 0.14441705 0.044189241
-0.067619272 0.14409554 0.042342652
-0.031518556 0.037600935 0.051163059
-0.025171388 0.036698323 0.052961905
-0.015896305 0.037136175 0.051389784
-0.031390328 0.041963439 0.050769482
-0.024533082 0.04363995 0.05254402
-0.016045254 0.043253124 0.051405773
-0.0044899643 0.048895314 0.050440434
0.004499529 0.048571989 0.050770286
-0.013766104 0.055978607 0.051522616
-0.0049981945 0.054771155 0.053559646
0.0050601722 0.05479683 0.053161349
0.011974829 0.055933706 0.05141107
-0.020807942 0.068258941 0.050946686
-0.015097558 0.06470184 0.053446855
-0.0049993047 0.064746931 0.056119423
0.0052585732 0.064598307 0.05562903
0.013878752 0.065847978 0.052247774
-0.022685701 0.076241791 0.05282471
-0.015096989 0.074481256 0.055771869
-0.0049977195 0.074606657 0.057939421
0.0052312934 0.074839279 0.056264896
0.015000657 0.075378008 0.05335705
0.020913046 0.075790711 0.050560482
-0.023521237 0.084910966 0.053776946
-0.014992301 0.084941424 0.057024635
-0.0049970066 0.084966928 0.057268076
0.0050739101 0.085125305 0.056305163
0.014564087 0.084679104 0.05275042
0.021094929 0.082627326 0.05038356
-0.02191514 0.092120618 0.051823169
-0.014833981 0.094144627 0.053777441
-0.0049388949 0.095450483 0.053982776
0.0044847233 0.094648965 0.053106938
0.013265929 0.092205964 0.051774003
-0.07459975 0.11672895 0.051694673
-0.068395577 0.11716036 0.051560644
-0.082339115 0.12686446 0.051417161
-0.074880324 0.12488326 0.052641459
-0.068023488 0.12365205 0.051675417
-0.081485525 0.13266957 0.051114801
-0.07571923 0.13304263 0.051529884
0 0 0 1 0 0 0 1 0 0 0 1 0 0 0 0 0 761 1 0 0
